<?xml version="1.0" encoding="utf-8"?>
<!-- Generator: Adobe Illustrator 25.1.0, SVG Export Plug-In . SVG Version: 6.00 Build 0)  -->
<svg version="1.1" id="Camada_1" xmlns="http://www.w3.org/2000/svg" xmlns:xlink="http://www.w3.org/1999/xlink" x="0px" y="0px"
	 viewBox="0 0 732.09 253.78" style="enable-background:new 0 0 732.09 253.78;" xml:space="preserve">
<style type="text/css">
	.st0{fill:#003573;}
</style>
<g>
	<g>
		<path class="st0" d="M85.05,251.43v2.12H62.83v-32.2h21.53v2.12H65.17v12.7h17.16v2.07H65.17v13.2H85.05z"/>
		<path class="st0" d="M162.05,253.55l-0.05-27.56l-13.48,23.28h-1.15l-13.48-23.19v27.46h-2.3v-32.2h1.98l14.4,24.89l14.4-24.89
			h1.93l0.05,32.2H162.05z"/>
		<path class="st0" d="M239.79,245.04c0,5.43-3.96,8.51-11.87,8.51h-14.35v-32.2H227c6.9,0,11.09,2.9,11.09,8.24
			c0,3.82-2.16,6.3-5.38,7.36C237.26,237.81,239.79,240.57,239.79,245.04z M215.91,223.37v12.84h11c5.57,0,8.79-2.16,8.79-6.44
			c0-4.23-3.22-6.39-8.79-6.39H215.91z M237.45,244.85c0-4.6-3.36-6.62-9.52-6.62h-12.01v13.29h12.01
			C234.09,251.52,237.45,249.5,237.45,244.85z"/>
		<path class="st0" d="M306.08,244.48H287.4l-4.09,9.06h-2.53l14.81-32.2h2.35l14.81,32.2h-2.53L306.08,244.48z M305.2,242.51
			l-8.46-18.59l-8.42,18.59H305.2z"/>
		<path class="st0" d="M356.58,221.34h2.35v30.09h18.54v2.12h-20.89V221.34z"/>
		<path class="st0" d="M441.45,244.48h-18.68l-4.09,9.06h-2.53l14.81-32.2h2.35l14.81,32.2h-2.53L441.45,244.48z M440.58,242.51
			l-8.47-18.59l-8.42,18.59H440.58z"/>
		<path class="st0" d="M514.5,237.58h2.25v12.05c-2.9,2.76-7.08,4.14-11.5,4.14c-9.71,0-16.84-6.95-16.84-16.33
			c0-9.39,7.13-16.33,16.88-16.33c4.65,0,8.74,1.47,11.59,4.42l-1.47,1.56c-2.81-2.76-6.16-3.82-10.08-3.82
			c-8.37,0-14.58,6.07-14.58,14.17c0,8.05,6.21,14.17,14.58,14.17c3.4,0,6.53-0.83,9.16-2.94V237.58z"/>
		<path class="st0" d="M587.27,251.43v2.12h-22.22v-32.2h21.53v2.12H567.4v12.7h17.16v2.07H567.4v13.2H587.27z"/>
		<path class="st0" d="M660.05,221.34v32.2h-1.93l-21.94-27.97v27.97h-2.35v-32.2h1.98l21.9,27.97v-27.97H660.05z"/>
		<path class="st0" d="M706,249.41l1.06-1.75c2.21,2.3,6.3,4.05,10.63,4.05c6.44,0,9.29-2.81,9.29-6.3c0-9.66-20.1-3.87-20.1-15.73
			c0-4.55,3.5-8.56,11.41-8.56c3.54,0,7.22,1.1,9.71,2.9l-0.87,1.89c-2.67-1.84-5.93-2.71-8.83-2.71c-6.26,0-9.06,2.9-9.06,6.44
			c0,9.66,20.1,3.96,20.1,15.64c0,4.55-3.63,8.51-11.59,8.51C712.94,253.78,708.34,251.98,706,249.41z"/>
	</g>
	<g>
		<g>
			<path class="st0" d="M507.62,144.79c35.55,5.9,57.25-15.13,62.02-35.46c7.66-36.9-9.02-63.04-57.47-60.94
				c41.38-25.15,92.06,27.91,77.09,69.11C571.17,167.12,516.53,152.57,507.62,144.79z"/>
			<path class="st0" d="M495.85,96.82c0,11.74-0.17,36.09,40.91,39.16c-23.94,7.13-46.89-3.16-54.39-28.03
				c-5.43-19.27,1.47-38.96,18.16-48.82c11.73-6.93,33.87-8.87,42.64-0.36C516.96,59.29,495.85,74.61,495.85,96.82z"/>
			<path class="st0" d="M580.11,55.44c59.49,4.32,53.74,62.28,14.55,67C603.34,99.09,593.26,67.29,580.11,55.44z"/>
			<path class="st0" d="M572.75,48.14c-19.93-14.94-42.28-15.47-65.07-6.74C536.87-18.5,587.26,20.31,572.75,48.14z"/>
			<path class="st0" d="M535.17,161.59c34.81,0.34,48.66-23.08,55.49-32.67C603.85,183.72,543.18,198.27,535.17,161.59z"/>
			<path class="st0" d="M477.47,114.65c4.98,23.65,27.96,40.59,49.11,44.94C481.43,188.18,446.96,139.55,477.47,114.65z"/>
			<path class="st0" d="M473.8,106.02c-41.43-49.2,4.78-81.54,29.54-60.77C486.15,54.69,473.55,81.5,473.8,106.02z"/>
			<path class="st0" d="M547.68,187.63c-11.23,15.3-49.91,18.43-59.6-15.22c3.01-0.03,23.86,4.16,40.07-5.29
				C533.25,176.46,540.28,182.75,547.68,187.63z"/>
			<path class="st0" d="M530.32,5.53c-12.58,7.58-21.7,16.39-27.83,30.19c-8.49-4.15-17.69-3.62-27.12-2.52
				C483.6-7.01,523.68-2.84,530.32,5.53z"/>
			<path class="st0" d="M515.39,120.84c52.08,1.6,45.44-52.65,13.15-54.01C585.2,61.23,563.85,156.4,515.39,120.84z"/>
			<path class="st0" d="M506.25,103.56c-12.27-33.41,32.58-45.03,38.77-12.14C539.9,80.23,507.68,69.16,506.25,103.56z"/>
			<path class="st0" d="M457.95,138.3c2.05-9.75,3.35-18.58,11.25-27.09c-13.14-13.28-16.96-28.55-19.37-41.06
				C419.77,121.67,450.15,134.44,457.95,138.3z"/>
			<path class="st0" d="M624.85,116.12c-5.85,8.66-21.83,12.51-26.68,13.09c0.7,6.06,3,28.02-8.91,45.01
				C605.64,171.05,637.64,156.82,624.85,116.12z"/>
			<path class="st0" d="M575.94,17.42c6.08,8.64,5.34,19.45,6.21,28.22c22.72-0.05,32.94,9.66,38.78,17.98
				C627.85,30.61,603.17,15.63,575.94,17.42z"/>
			<ellipse class="st0" cx="527.13" cy="100.74" rx="12.77" ry="13.91"/>
		</g>
		<path class="st0" d="M285.27,159.26h-3.4c-9.87,0-19.53-2.03-29-6.1c-9.47-4.07-17.43-9.33-23.9-15.8
			c-6.47-6.46-11.77-14.4-15.9-23.8c-4.13-9.4-6.2-19.17-6.2-29.3c0-10.27,1.97-19.9,5.9-28.9c3.93-9,9.3-16.96,16.1-23.9
			c6.8-6.93,13.7-11.9,20.7-14.9c7-3,12.73-4.97,17.2-5.9c4.47-0.93,9.5-1.4,15.1-1.4h3.4v12.4h-3.4c-17.73,0-32.6,6.29-44.6,18.87
			c-12,12.58-18,27.19-18,43.83c0,17.84,5.53,32.05,16.6,42.63c11.07,10.58,23.4,17.08,37,19.47V44.06h12.4V159.26z"/>
		<path class="st0" d="M126.03,69.54c-8.91-11.83-20.34-19.81-34.3-23.93c3.72-4.52,5.58-9.64,5.58-15.36
			c0-4.52-1.17-8.71-3.49-12.56c-2.33-3.85-5.35-6.88-9.07-9.07c-3.72-2.19-7.85-3.29-12.36-3.29H59.43
			c-10.77,0-20.71,2.69-29.81,8.08c-9.11,5.38-16.32,12.63-21.64,21.74C2.66,44.24,0,54.25,0,65.15c0,7.58,1.46,15.16,4.39,22.73
			c3.19,7.31,7.64,13.83,13.36,19.54c5.71,5.72,12.13,10.04,19.24,12.96c7.11,2.93,14.72,4.39,22.83,4.39v20.14h12.36V55.18
			c9.8,0,18.98,2.46,27.52,7.38c8.54,4.92,15.23,11.6,20.07,20.04c4.84,8.44,7.25,17.52,7.25,27.22c0,7.18-1.5,14.29-4.48,21.34
			c-2.98,7.05-8.33,14.36-16.02,21.94c-7.7,7.58-19.11,11.37-34.24,11.37c-6.77,0-13.64-1.5-20.6-4.49
			c-6.97-2.99-12.14-6.05-15.52-9.17c-3.38-3.12-5.81-5.68-7.27-7.68l-9.95,6.98c6.11,8.11,13.89,14.59,23.33,19.44
			c9.44,4.85,19.47,7.28,30.11,7.28c11.97,0,23.13-2.99,33.5-8.97c10.37-5.98,18.55-14.16,24.53-24.53
			c5.98-10.37,8.97-21.54,8.97-33.5C139.39,94.8,134.94,81.37,126.03,69.54z M59.83,112.41c-12.1,0-23.03-4.42-32.8-13.26
			c-9.77-8.84-14.66-20.24-14.66-34.2c0-11.97,4.42-22.83,13.26-32.61c8.84-9.77,20.24-14.66,34.2-14.66V112.41z M81.22,39.59
			c-2.49,2.55-5.5,3.82-9.03,3.82V17.69c3.66,0,6.71,1.24,9.13,3.72c2.42,2.48,3.63,5.53,3.63,9.15
			C84.95,34.03,83.71,37.05,81.22,39.59z"/>
		<path class="st0" d="M193.47,23.46c-1.33-3.07-3.23-5.8-5.7-8.2c-2.47-2.4-5.1-4.23-7.9-5.5c-2.8-1.27-6.2-1.9-10.2-1.9
			c-7.33,0-13.43,2.54-18.3,7.6c-4.87,5.07-7.3,11.13-7.3,18.2v125.6h12.4V58.66h26.6v100.6h12.4V33.66
			C195.47,29.93,194.8,26.53,193.47,23.46z M183.07,46.66h-26.6v-13c0-4.53,1.32-7.97,3.97-10.3c2.65-2.33,5.69-3.5,9.13-3.5
			c4.37,0,7.71,1.4,10.02,4.2c2.32,2.8,3.48,6,3.48,9.6V46.66z"/>
		<path class="st0" d="M730.09,23.46c-1.33-3.07-3.23-5.8-5.7-8.2c-2.47-2.4-5.1-4.23-7.9-5.5c-2.8-1.27-6.2-1.9-10.2-1.9
			c-7.33,0-13.43,2.54-18.3,7.6c-4.87,5.07-7.3,11.13-7.3,18.2v125.6h12.4V58.66h26.6v100.6h12.4V33.66
			C732.09,29.93,731.42,26.53,730.09,23.46z M719.69,46.66h-26.6v-13c0-4.53,1.32-7.97,3.97-10.3c2.65-2.33,5.69-3.5,9.13-3.5
			c4.37,0,7.71,1.4,10.02,4.2c2.32,2.8,3.48,6,3.48,9.6V46.66z"/>
		<path class="st0" d="M635.05,159.26h-20v-12.4h20c5.73,0,10.57-2.07,14.5-6.2c3.93-4.13,5.9-8.87,5.9-14.2c0-3.07-0.4-5.6-1.2-7.6
			l-31.6-68.6c-1.6-3.6-2.4-7.6-2.4-12c0-7.87,2.8-14.67,8.4-20.4c5.6-5.73,12.4-8.6,20.4-8.6h14.8v12.4h-14.71
			c-4.37,0-8.21,1.59-11.53,4.76s-4.97,7.14-4.97,11.9c0,2.51,0.39,4.7,1.17,6.55l31.09,67.96c1.96,4,2.94,8.54,2.94,13.61
			c0,8.94-3.23,16.64-9.7,23.11C651.68,156.03,643.98,159.26,635.05,159.26z"/>
		<path class="st0" d="M438.46,107.26c8-10.53,12-22.67,12-36.4c0-10.93-2.77-21.17-8.3-30.7c-5.53-9.53-12.9-17.07-22.1-22.6
			c-9.2-5.53-19.2-8.3-30-8.3h-1h-9.2h-2.2c-6.4,0-12.43,1.37-18.1,4.1c-5.67,2.73-11.93,7.67-18.8,14.8
			c-6.87,7.13-10.3,17.37-10.3,30.7c0,8.53,2.13,16.6,6.4,24.2c4.27,7.6,9.27,13.13,15,16.6c5.73,3.47,10.37,5.77,13.9,6.9
			c3.53,1.13,7.5,1.7,11.9,1.7v77.55h12.4v-55.19l46.67,37.13l7.13-8.48l-36.8-29.8C419.99,125.2,430.46,117.8,438.46,107.26z
			 M377.66,95.86c-9.28-0.8-17.4-4.7-24.36-11.7c-6.96-7-10.44-15.5-10.44-25.5c0-9.6,3.41-18.2,10.24-25.8
			c6.82-7.6,15.01-11.4,24.56-11.4V95.86z M390.06,21.66c6.77,0,12.94,1.23,18.52,3.7c5.58,2.47,11.88,7.27,18.92,14.4
			c7.04,7.13,10.56,17.5,10.56,31.1c0,13.07-3.52,23.3-10.56,30.7c-7.04,7.4-13.35,12.33-18.92,14.8c-5.58,2.47-11.75,3.7-18.52,3.7
			V21.66z"/>
	</g>
</g>
</svg>
